<mxfile host="app.diagrams.net" agent="Mozilla/5.0 (Windows NT 10.0; Win64; x64) AppleWebKit/537.36 (KHTML, like Gecko) Chrome/137.0.0.0 Safari/537.36" version="27.1.4">
  <diagram name="PÃ¡gina-1" id="l050R2F7LaPwx9qxq3fJ">
    <mxGraphModel grid="1" page="1" gridSize="10" guides="1" tooltips="1" connect="1" arrows="1" fold="0" pageScale="1" pageWidth="827" pageHeight="1169" math="0" shadow="0">
      <root>
        <mxCell id="0" />
        <mxCell id="1" parent="0" />
        <mxCell id="iwp4kzByvWp1J7AOCPTl-1" value=":Controller" style="html=1;whiteSpace=wrap;" vertex="1" parent="1">
          <mxGeometry x="222" y="520" width="110" height="50" as="geometry" />
        </mxCell>
        <mxCell id="iwp4kzByvWp1J7AOCPTl-2" value="&lt;font style=&quot;font-size: 14px;&quot;&gt;seleccionarProducto(DTProducto)&lt;/font&gt;" style="endArrow=none;html=1;endSize=12;startArrow=none;startSize=14;startFill=0;edgeStyle=orthogonalEdgeStyle;align=center;verticalAlign=bottom;endFill=0;rounded=0;" edge="1" parent="1">
          <mxGeometry x="-0.082" y="6" relative="1" as="geometry">
            <mxPoint x="1.4400000000000013" y="545.5" as="sourcePoint" />
            <mxPoint x="221.44" y="530" as="targetPoint" />
            <mxPoint x="-1" as="offset" />
          </mxGeometry>
        </mxCell>
        <mxCell id="iwp4kzByvWp1J7AOCPTl-3" value="Object" style="html=1;whiteSpace=wrap;" vertex="1" parent="1">
          <mxGeometry x="602" y="530" width="110" height="50" as="geometry" />
        </mxCell>
        <mxCell id="iwp4kzByvWp1J7AOCPTl-4" value=":Producto" style="html=1;whiteSpace=wrap;" vertex="1" parent="1">
          <mxGeometry x="592" y="520" width="110" height="50" as="geometry" />
        </mxCell>
        <mxCell id="iwp4kzByvWp1J7AOCPTl-5" value="&lt;span style=&quot;font-size: 14px;&quot;&gt;1 p=find(id)&lt;/span&gt;" style="endArrow=none;html=1;endSize=12;startArrow=none;startSize=14;startFill=0;edgeStyle=orthogonalEdgeStyle;align=center;verticalAlign=bottom;endFill=0;rounded=0;exitX=1;exitY=0.5;exitDx=0;exitDy=0;entryX=0;entryY=0.5;entryDx=0;entryDy=0;" edge="1" parent="1" source="iwp4kzByvWp1J7AOCPTl-1">
          <mxGeometry x="0.0737" y="5" relative="1" as="geometry">
            <mxPoint x="392" y="480" as="sourcePoint" />
            <mxPoint x="591" y="545.0000000000001" as="targetPoint" />
            <Array as="points" />
            <mxPoint as="offset" />
          </mxGeometry>
        </mxCell>
        <mxCell id="iwp4kzByvWp1J7AOCPTl-6" value="p: Producto" style="html=1;whiteSpace=wrap;" vertex="1" parent="1">
          <mxGeometry x="502.99999999999994" y="630.0000000000001" width="110" height="50" as="geometry" />
        </mxCell>
        <mxCell id="iwp4kzByvWp1J7AOCPTl-7" value="&lt;span style=&quot;font-size: 14px;&quot;&gt;2&amp;nbsp;&lt;/span&gt;&lt;span style=&quot;font-size: 14px;&quot;&gt;retornarDTProducto():DTProducto&lt;/span&gt;" style="endArrow=none;html=1;endSize=12;startArrow=none;startSize=14;startFill=0;edgeStyle=orthogonalEdgeStyle;align=center;verticalAlign=bottom;endFill=0;rounded=0;entryX=0;entryY=0.5;entryDx=0;entryDy=0;" edge="1" parent="1" target="iwp4kzByvWp1J7AOCPTl-6">
          <mxGeometry x="0.2795" y="5" relative="1" as="geometry">
            <mxPoint x="274" y="570" as="sourcePoint" />
            <mxPoint x="472.99999999999994" y="655" as="targetPoint" />
            <Array as="points">
              <mxPoint x="272" y="570" />
              <mxPoint x="274" y="570" />
              <mxPoint x="274" y="655" />
            </Array>
            <mxPoint as="offset" />
          </mxGeometry>
        </mxCell>
        <mxCell id="iwp4kzByvWp1J7AOCPTl-8" value="" style="endArrow=classic;html=1;rounded=0;" edge="1" parent="1">
          <mxGeometry width="50" height="50" relative="1" as="geometry">
            <mxPoint x="383" y="670.0000000000001" as="sourcePoint" />
            <mxPoint x="433" y="670.0000000000001" as="targetPoint" />
          </mxGeometry>
        </mxCell>
        <mxCell id="iwp4kzByvWp1J7AOCPTl-9" value="" style="endArrow=classic;html=1;rounded=0;" edge="1" parent="1">
          <mxGeometry width="50" height="50" relative="1" as="geometry">
            <mxPoint x="452" y="554.38" as="sourcePoint" />
            <mxPoint x="501.99999999999994" y="554.38" as="targetPoint" />
          </mxGeometry>
        </mxCell>
        <mxCell id="iwp4kzByvWp1J7AOCPTl-19" value=":Controller" style="html=1;whiteSpace=wrap;" vertex="1" parent="1">
          <mxGeometry x="210" y="70" width="110" height="50" as="geometry" />
        </mxCell>
        <mxCell id="iwp4kzByvWp1J7AOCPTl-20" value="Object" style="html=1;whiteSpace=wrap;" vertex="1" parent="1">
          <mxGeometry x="490" y="80" width="110" height="50" as="geometry" />
        </mxCell>
        <mxCell id="iwp4kzByvWp1J7AOCPTl-21" value=": Usuario" style="html=1;whiteSpace=wrap;" vertex="1" parent="1">
          <mxGeometry x="480" y="70" width="110" height="50" as="geometry" />
        </mxCell>
        <mxCell id="iwp4kzByvWp1J7AOCPTl-22" value="&lt;font style=&quot;font-size: 14px;&quot;&gt;1* [foreach] u=next()&lt;/font&gt;" style="endArrow=none;html=1;endSize=12;startArrow=none;startSize=14;startFill=0;edgeStyle=orthogonalEdgeStyle;align=center;verticalAlign=bottom;endFill=0;rounded=0;entryX=0;entryY=0.5;entryDx=0;entryDy=0;" edge="1" parent="1" target="iwp4kzByvWp1J7AOCPTl-21">
          <mxGeometry y="3" relative="1" as="geometry">
            <mxPoint x="320" y="94.5" as="sourcePoint" />
            <mxPoint x="480" y="94.5" as="targetPoint" />
          </mxGeometry>
        </mxCell>
        <mxCell id="iwp4kzByvWp1J7AOCPTl-23" value="&lt;font style=&quot;font-size: 14px;&quot;&gt;listarNicknamesUsuario():set(str&lt;/font&gt;&lt;span style=&quot;font-size: 14px; background-color: light-dark(#ffffff, var(--ge-dark-color, #121212)); color: light-dark(rgb(0, 0, 0), rgb(255, 255, 255));&quot;&gt;)&lt;/span&gt;" style="endArrow=none;html=1;endSize=12;startArrow=none;startSize=14;startFill=0;edgeStyle=orthogonalEdgeStyle;align=center;verticalAlign=bottom;endFill=0;rounded=0;" edge="1" parent="1">
          <mxGeometry y="3" relative="1" as="geometry">
            <mxPoint y="95" as="sourcePoint" />
            <mxPoint x="210" y="94.5" as="targetPoint" />
          </mxGeometry>
        </mxCell>
        <mxCell id="iwp4kzByvWp1J7AOCPTl-24" value="" style="endArrow=classic;html=1;rounded=0;" edge="1" parent="1">
          <mxGeometry width="50" height="50" relative="1" as="geometry">
            <mxPoint x="370" y="104.37" as="sourcePoint" />
            <mxPoint x="420" y="104.37" as="targetPoint" />
          </mxGeometry>
        </mxCell>
        <mxCell id="iwp4kzByvWp1J7AOCPTl-25" value="u: Usuario" style="html=1;whiteSpace=wrap;" vertex="1" parent="1">
          <mxGeometry x="461" y="160.0000000000001" width="110" height="50" as="geometry" />
        </mxCell>
        <mxCell id="iwp4kzByvWp1J7AOCPTl-26" value="&lt;font style=&quot;font-size: 14px;&quot;&gt;2* n=getNick:str&lt;/font&gt;" style="endArrow=none;html=1;endSize=12;startArrow=none;startSize=14;startFill=0;edgeStyle=orthogonalEdgeStyle;align=center;verticalAlign=bottom;endFill=0;rounded=0;exitX=0.5;exitY=1;exitDx=0;exitDy=0;entryX=0;entryY=0.5;entryDx=0;entryDy=0;" edge="1" parent="1" target="iwp4kzByvWp1J7AOCPTl-25">
          <mxGeometry x="0.0714" y="5" relative="1" as="geometry">
            <mxPoint x="262" y="120" as="sourcePoint" />
            <mxPoint x="467" y="224.5000000000001" as="targetPoint" />
            <Array as="points">
              <mxPoint x="262" y="185.0000000000001" />
            </Array>
            <mxPoint as="offset" />
          </mxGeometry>
        </mxCell>
        <mxCell id="iwp4kzByvWp1J7AOCPTl-27" value="" style="endArrow=classic;html=1;rounded=0;" edge="1" parent="1">
          <mxGeometry width="50" height="50" relative="1" as="geometry">
            <mxPoint x="341" y="200.0000000000001" as="sourcePoint" />
            <mxPoint x="391" y="200.0000000000001" as="targetPoint" />
          </mxGeometry>
        </mxCell>
        <mxCell id="aNQMmDItpLbDWo2lB1BC-4" value=":Controller" style="html=1;whiteSpace=wrap;" vertex="1" parent="1">
          <mxGeometry x="280" y="230" width="110" height="50" as="geometry" />
        </mxCell>
        <mxCell id="aNQMmDItpLbDWo2lB1BC-5" value="&lt;font style=&quot;font-size: 14px;&quot;&gt;seleccionarUsuario(nick):set(DTProducto)&lt;/font&gt;" style="endArrow=none;html=1;endSize=12;startArrow=none;startSize=14;startFill=0;edgeStyle=orthogonalEdgeStyle;align=center;verticalAlign=bottom;endFill=0;rounded=0;" edge="1" parent="1">
          <mxGeometry x="-0.0732" y="5" relative="1" as="geometry">
            <mxPoint y="255" as="sourcePoint" />
            <mxPoint x="280" y="254.5" as="targetPoint" />
            <mxPoint as="offset" />
          </mxGeometry>
        </mxCell>
        <mxCell id="aNQMmDItpLbDWo2lB1BC-6" value="&lt;font style=&quot;font-size: 14px;&quot;&gt;1 u= find(nick)&lt;/font&gt;" style="endArrow=none;html=1;endSize=12;startArrow=none;startSize=14;startFill=0;edgeStyle=orthogonalEdgeStyle;align=center;verticalAlign=bottom;endFill=0;rounded=0;entryX=0;entryY=0.5;entryDx=0;entryDy=0;" edge="1" parent="1">
          <mxGeometry y="3" relative="1" as="geometry">
            <mxPoint x="390" y="254.5" as="sourcePoint" />
            <mxPoint x="640" y="255" as="targetPoint" />
          </mxGeometry>
        </mxCell>
        <mxCell id="aNQMmDItpLbDWo2lB1BC-7" value="Object" style="html=1;whiteSpace=wrap;" vertex="1" parent="1">
          <mxGeometry x="650" y="240" width="110" height="50" as="geometry" />
        </mxCell>
        <mxCell id="aNQMmDItpLbDWo2lB1BC-8" value=": Usuario" style="html=1;whiteSpace=wrap;" vertex="1" parent="1">
          <mxGeometry x="640" y="230" width="110" height="50" as="geometry" />
        </mxCell>
        <mxCell id="aNQMmDItpLbDWo2lB1BC-9" value="Recuerdo usuario obtenido" style="shape=note2;boundedLbl=1;whiteSpace=wrap;html=1;size=25;verticalAlign=top;align=center;" vertex="1" parent="1">
          <mxGeometry x="175" y="335" width="70" height="85" as="geometry" />
        </mxCell>
        <mxCell id="aNQMmDItpLbDWo2lB1BC-10" value="" style="endArrow=none;dashed=1;html=1;rounded=0;entryX=1.057;entryY=0.753;entryDx=0;entryDy=0;entryPerimeter=0;exitX=0.25;exitY=1;exitDx=0;exitDy=0;" edge="1" parent="1" source="aNQMmDItpLbDWo2lB1BC-4" target="aNQMmDItpLbDWo2lB1BC-9">
          <mxGeometry width="50" height="50" relative="1" as="geometry">
            <mxPoint x="320" y="310" as="sourcePoint" />
            <mxPoint x="310" y="205" as="targetPoint" />
          </mxGeometry>
        </mxCell>
        <mxCell id="aNQMmDItpLbDWo2lB1BC-11" value="" style="endArrow=classic;html=1;rounded=0;" edge="1" parent="1">
          <mxGeometry width="50" height="50" relative="1" as="geometry">
            <mxPoint x="493.5" y="264.38" as="sourcePoint" />
            <mxPoint x="543.5" y="264.38" as="targetPoint" />
          </mxGeometry>
        </mxCell>
        <mxCell id="aNQMmDItpLbDWo2lB1BC-12" value="Object" style="html=1;whiteSpace=wrap;" vertex="1" parent="1">
          <mxGeometry x="529" y="332.5" width="110" height="50" as="geometry" />
        </mxCell>
        <mxCell id="aNQMmDItpLbDWo2lB1BC-13" value=":Productos" style="html=1;whiteSpace=wrap;" vertex="1" parent="1">
          <mxGeometry x="519" y="322.5" width="110" height="50" as="geometry" />
        </mxCell>
        <mxCell id="aNQMmDItpLbDWo2lB1BC-14" value="&lt;span style=&quot;font-size: 14px;&quot;&gt;2*[foreach] c=next()&lt;/span&gt;" style="endArrow=none;html=1;endSize=12;startArrow=none;startSize=14;startFill=0;edgeStyle=orthogonalEdgeStyle;align=center;verticalAlign=bottom;endFill=0;rounded=0;exitX=0.5;exitY=1;exitDx=0;exitDy=0;entryX=0;entryY=0.5;entryDx=0;entryDy=0;" edge="1" parent="1" target="aNQMmDItpLbDWo2lB1BC-13">
          <mxGeometry x="0.2802" y="15" relative="1" as="geometry">
            <mxPoint x="360.55999999999995" y="282.5" as="sourcePoint" />
            <mxPoint x="559.56" y="347.5000000000001" as="targetPoint" />
            <Array as="points">
              <mxPoint x="361" y="347.5" />
            </Array>
            <mxPoint as="offset" />
          </mxGeometry>
        </mxCell>
        <mxCell id="aNQMmDItpLbDWo2lB1BC-15" value="c: Producto" style="html=1;whiteSpace=wrap;" vertex="1" parent="1">
          <mxGeometry x="540" y="422.5000000000001" width="110" height="50" as="geometry" />
        </mxCell>
        <mxCell id="aNQMmDItpLbDWo2lB1BC-16" value="&lt;span style=&quot;font-size: 14px;&quot;&gt;3*&amp;nbsp;&amp;nbsp;retornarDTProducto():DTProducto&lt;/span&gt;" style="endArrow=none;html=1;endSize=12;startArrow=none;startSize=14;startFill=0;edgeStyle=orthogonalEdgeStyle;align=center;verticalAlign=bottom;endFill=0;rounded=0;entryX=0;entryY=0.5;entryDx=0;entryDy=0;exitX=0.169;exitY=1.017;exitDx=0;exitDy=0;exitPerimeter=0;" edge="1" parent="1" target="aNQMmDItpLbDWo2lB1BC-15" source="aNQMmDItpLbDWo2lB1BC-4">
          <mxGeometry x="0.4119" y="8" relative="1" as="geometry">
            <mxPoint x="319.23" y="283.9000000000001" as="sourcePoint" />
            <mxPoint x="489" y="447.5" as="targetPoint" />
            <Array as="points">
              <mxPoint x="299" y="284" />
              <mxPoint x="300" y="284" />
              <mxPoint x="300" y="447" />
            </Array>
            <mxPoint as="offset" />
          </mxGeometry>
        </mxCell>
        <mxCell id="aNQMmDItpLbDWo2lB1BC-17" value="" style="endArrow=classic;html=1;rounded=0;" edge="1" parent="1">
          <mxGeometry width="50" height="50" relative="1" as="geometry">
            <mxPoint x="399" y="462.5000000000001" as="sourcePoint" />
            <mxPoint x="449" y="462.5000000000001" as="targetPoint" />
          </mxGeometry>
        </mxCell>
        <mxCell id="nX3O5HF4ZHFwYH-XQvAa-5" value="&lt;span style=&quot;font-size: 14px;&quot;&gt;agregarComentario(str)&lt;/span&gt;" style="endArrow=none;html=1;endSize=12;startArrow=none;startSize=14;startFill=0;edgeStyle=orthogonalEdgeStyle;align=center;verticalAlign=bottom;endFill=0;rounded=0;" edge="1" parent="1">
          <mxGeometry x="-0.3584" y="1" relative="1" as="geometry">
            <mxPoint y="795" as="sourcePoint" />
            <mxPoint x="280" y="794.5" as="targetPoint" />
            <mxPoint as="offset" />
          </mxGeometry>
        </mxCell>
        <mxCell id="nX3O5HF4ZHFwYH-XQvAa-6" value="&lt;font style=&quot;font-size: 14px;&quot;&gt;1 crearComentario(str)&lt;/font&gt;" style="endArrow=none;html=1;endSize=12;startArrow=none;startSize=14;startFill=0;edgeStyle=orthogonalEdgeStyle;align=center;verticalAlign=bottom;endFill=0;rounded=0;entryX=0;entryY=0.5;entryDx=0;entryDy=0;exitX=1;exitY=0.5;exitDx=0;exitDy=0;" edge="1" parent="1" source="nX3O5HF4ZHFwYH-XQvAa-4" target="nX3O5HF4ZHFwYH-XQvAa-1">
          <mxGeometry x="-0.0042" y="3" relative="1" as="geometry">
            <mxPoint x="390" y="794.5" as="sourcePoint" />
            <mxPoint x="640" y="795" as="targetPoint" />
            <mxPoint as="offset" />
          </mxGeometry>
        </mxCell>
        <mxCell id="nX3O5HF4ZHFwYH-XQvAa-10" value="" style="endArrow=classic;html=1;rounded=0;" edge="1" parent="1">
          <mxGeometry width="50" height="50" relative="1" as="geometry">
            <mxPoint x="340" y="810" as="sourcePoint" />
            <mxPoint x="390" y="810" as="targetPoint" />
          </mxGeometry>
        </mxCell>
        <mxCell id="nX3O5HF4ZHFwYH-XQvAa-12" value=": Comentario" style="html=1;whiteSpace=wrap;" vertex="1" parent="1">
          <mxGeometry x="712" y="790" width="110" height="50" as="geometry" />
        </mxCell>
        <mxCell id="nX3O5HF4ZHFwYH-XQvAa-13" value="&lt;span style=&quot;font-size: 14px;&quot;&gt;1.1 c=create(DTComentario)&lt;/span&gt;" style="endArrow=none;html=1;endSize=12;startArrow=none;startSize=14;startFill=0;edgeStyle=orthogonalEdgeStyle;align=center;verticalAlign=bottom;endFill=0;rounded=0;entryX=0;entryY=0.5;entryDx=0;entryDy=0;exitX=1;exitY=0.25;exitDx=0;exitDy=0;" edge="1" parent="1" source="nX3O5HF4ZHFwYH-XQvAa-1" target="nX3O5HF4ZHFwYH-XQvAa-12">
          <mxGeometry x="0.0051" y="3" relative="1" as="geometry">
            <mxPoint x="741" y="794.5" as="sourcePoint" />
            <mxPoint x="991" y="795" as="targetPoint" />
            <mxPoint y="1" as="offset" />
            <Array as="points">
              <mxPoint x="676" y="783" />
              <mxPoint x="780" y="783" />
            </Array>
          </mxGeometry>
        </mxCell>
        <mxCell id="nX3O5HF4ZHFwYH-XQvAa-14" value="" style="endArrow=classic;html=1;rounded=0;" edge="1" parent="1">
          <mxGeometry width="50" height="50" relative="1" as="geometry">
            <mxPoint x="639" y="790" as="sourcePoint" />
            <mxPoint x="689" y="790" as="targetPoint" />
          </mxGeometry>
        </mxCell>
        <mxCell id="nX3O5HF4ZHFwYH-XQvAa-17" value="p: Producto" style="html=1;whiteSpace=wrap;" vertex="1" parent="1">
          <mxGeometry x="279.89" y="890.0000000000001" width="110" height="50" as="geometry" />
        </mxCell>
        <mxCell id="Ire11kEcOZUN5DbAy0BZ-2" value="" style="endArrow=classic;html=1;rounded=0;" edge="1" parent="1">
          <mxGeometry width="50" height="50" relative="1" as="geometry">
            <mxPoint x="429" y="352.5" as="sourcePoint" />
            <mxPoint x="479" y="352.5" as="targetPoint" />
          </mxGeometry>
        </mxCell>
        <mxCell id="nX3O5HF4ZHFwYH-XQvAa-18" value="" style="endArrow=none;html=1;endSize=12;startArrow=none;startSize=14;startFill=0;edgeStyle=orthogonalEdgeStyle;align=center;verticalAlign=bottom;endFill=0;rounded=0;entryX=0;entryY=0.5;entryDx=0;entryDy=0;exitX=0.327;exitY=1.06;exitDx=0;exitDy=0;exitPerimeter=0;" edge="1" parent="1" target="nX3O5HF4ZHFwYH-XQvAa-17">
          <mxGeometry x="0.2795" y="5" relative="1" as="geometry">
            <mxPoint x="536.9699999999998" y="823" as="sourcePoint" />
            <mxPoint x="249.89" y="915" as="targetPoint" />
            <Array as="points">
              <mxPoint x="537" y="850" />
              <mxPoint x="51" y="850" />
              <mxPoint x="51" y="915" />
            </Array>
            <mxPoint as="offset" />
          </mxGeometry>
        </mxCell>
        <mxCell id="nX3O5HF4ZHFwYH-XQvAa-19" value="" style="endArrow=classic;html=1;rounded=0;" edge="1" parent="1">
          <mxGeometry width="50" height="50" relative="1" as="geometry">
            <mxPoint x="159.89" y="930" as="sourcePoint" />
            <mxPoint x="209.89" y="930" as="targetPoint" />
          </mxGeometry>
        </mxCell>
        <mxCell id="nX3O5HF4ZHFwYH-XQvAa-4" value=":Controller" style="html=1;whiteSpace=wrap;" vertex="1" parent="1">
          <mxGeometry x="193" y="770" width="110" height="50" as="geometry" />
        </mxCell>
        <mxCell id="nX3O5HF4ZHFwYH-XQvAa-1" value="u: Usuario" style="html=1;whiteSpace=wrap;" vertex="1" parent="1">
          <mxGeometry x="461" y="770" width="110" height="50" as="geometry" />
        </mxCell>
        <mxCell id="nX3O5HF4ZHFwYH-XQvAa-21" value="Recuerdo producto obtenido" style="shape=note2;boundedLbl=1;whiteSpace=wrap;html=1;size=25;verticalAlign=top;align=center;" vertex="1" parent="1">
          <mxGeometry x="101.44" y="625" width="70" height="85" as="geometry" />
        </mxCell>
        <mxCell id="nX3O5HF4ZHFwYH-XQvAa-22" value="" style="endArrow=none;dashed=1;html=1;rounded=0;entryX=1.057;entryY=0.753;entryDx=0;entryDy=0;entryPerimeter=0;exitX=0.25;exitY=1;exitDx=0;exitDy=0;" edge="1" parent="1" target="nX3O5HF4ZHFwYH-XQvAa-21">
          <mxGeometry width="50" height="50" relative="1" as="geometry">
            <mxPoint x="234.44" y="570" as="sourcePoint" />
            <mxPoint x="236.44" y="495" as="targetPoint" />
          </mxGeometry>
        </mxCell>
        <mxCell id="nX3O5HF4ZHFwYH-XQvAa-23" value="&lt;span style=&quot;font-family: Helvetica; font-size: 14px; font-style: normal; font-variant-ligatures: normal; font-variant-caps: normal; font-weight: 400; letter-spacing: normal; orphans: 2; text-align: center; text-indent: 0px; text-transform: none; widows: 2; word-spacing: 0px; -webkit-text-stroke-width: 0px; white-space: nowrap; text-decoration-thickness: initial; text-decoration-style: initial; text-decoration-color: initial; float: none; background-color: light-dark(rgb(255, 255, 255), rgb(11, 11, 11)); display: inline !important;&quot;&gt;&lt;font style=&quot;color: light-dark(rgb(0, 0, 0), rgb(255, 255, 255));&quot;&gt;1.2 asociarComentarioProducto()&lt;/font&gt;&lt;/span&gt;" style="text;whiteSpace=wrap;html=1;" vertex="1" parent="1">
          <mxGeometry x="68.88999999999999" y="890" width="210" height="40" as="geometry" />
        </mxCell>
        <mxCell id="nX3O5HF4ZHFwYH-XQvAa-26" value="&lt;span style=&quot;font-size: 14px;&quot;&gt;1.2.1 add(c)&lt;/span&gt;" style="endArrow=none;html=1;endSize=12;startArrow=none;startSize=14;startFill=0;edgeStyle=orthogonalEdgeStyle;align=center;verticalAlign=bottom;endFill=0;rounded=0;entryX=0;entryY=0.5;entryDx=0;entryDy=0;" edge="1" parent="1">
          <mxGeometry x="-0.002" y="3" relative="1" as="geometry">
            <mxPoint x="389.89" y="914.5" as="sourcePoint" />
            <mxPoint x="578.89" y="915" as="targetPoint" />
            <mxPoint as="offset" />
          </mxGeometry>
        </mxCell>
        <mxCell id="nX3O5HF4ZHFwYH-XQvAa-27" value="" style="endArrow=classic;html=1;rounded=0;" edge="1" parent="1">
          <mxGeometry width="50" height="50" relative="1" as="geometry">
            <mxPoint x="448.89" y="924.38" as="sourcePoint" />
            <mxPoint x="498.89" y="924.38" as="targetPoint" />
          </mxGeometry>
        </mxCell>
        <mxCell id="nX3O5HF4ZHFwYH-XQvAa-28" value="Object" style="html=1;whiteSpace=wrap;" vertex="1" parent="1">
          <mxGeometry x="588.89" y="900" width="110" height="50" as="geometry" />
        </mxCell>
        <mxCell id="nX3O5HF4ZHFwYH-XQvAa-29" value="Comentario" style="html=1;whiteSpace=wrap;" vertex="1" parent="1">
          <mxGeometry x="578.89" y="890" width="110" height="50" as="geometry" />
        </mxCell>
        <mxCell id="nX3O5HF4ZHFwYH-XQvAa-32" value="" style="endArrow=none;html=1;endSize=12;startArrow=none;startSize=14;startFill=0;edgeStyle=orthogonalEdgeStyle;align=center;verticalAlign=bottom;endFill=0;rounded=0;entryX=0;entryY=0.5;entryDx=0;entryDy=0;exitX=0.118;exitY=1;exitDx=0;exitDy=0;exitPerimeter=0;" edge="1" parent="1" target="nX3O5HF4ZHFwYH-XQvAa-31">
          <mxGeometry x="0.2795" y="5" relative="1" as="geometry">
            <mxPoint x="513.98" y="820" as="sourcePoint" />
            <mxPoint x="891" y="1025" as="targetPoint" />
            <Array as="points">
              <mxPoint x="514" y="840" />
              <mxPoint x="30" y="840" />
              <mxPoint x="30" y="1035" />
            </Array>
            <mxPoint as="offset" />
          </mxGeometry>
        </mxCell>
        <mxCell id="nX3O5HF4ZHFwYH-XQvAa-31" value="u: Usuario" style="html=1;whiteSpace=wrap;" vertex="1" parent="1">
          <mxGeometry x="249.89" y="1010" width="110" height="50" as="geometry" />
        </mxCell>
        <mxCell id="nX3O5HF4ZHFwYH-XQvAa-33" value="" style="endArrow=classic;html=1;rounded=0;" edge="1" parent="1">
          <mxGeometry width="50" height="50" relative="1" as="geometry">
            <mxPoint x="129.89" y="1050" as="sourcePoint" />
            <mxPoint x="179.89" y="1050" as="targetPoint" />
          </mxGeometry>
        </mxCell>
        <mxCell id="nX3O5HF4ZHFwYH-XQvAa-35" value="&lt;span style=&quot;font-size: 14px;&quot;&gt;1.3.1 add(c)&lt;/span&gt;" style="endArrow=none;html=1;endSize=12;startArrow=none;startSize=14;startFill=0;edgeStyle=orthogonalEdgeStyle;align=center;verticalAlign=bottom;endFill=0;rounded=0;entryX=0;entryY=0.5;entryDx=0;entryDy=0;" edge="1" parent="1">
          <mxGeometry x="-0.002" y="3" relative="1" as="geometry">
            <mxPoint x="359.89" y="1034.5" as="sourcePoint" />
            <mxPoint x="548.89" y="1035" as="targetPoint" />
            <mxPoint as="offset" />
          </mxGeometry>
        </mxCell>
        <mxCell id="nX3O5HF4ZHFwYH-XQvAa-36" value="" style="endArrow=classic;html=1;rounded=0;" edge="1" parent="1">
          <mxGeometry width="50" height="50" relative="1" as="geometry">
            <mxPoint x="418.89" y="1044.38" as="sourcePoint" />
            <mxPoint x="468.89" y="1044.38" as="targetPoint" />
          </mxGeometry>
        </mxCell>
        <mxCell id="nX3O5HF4ZHFwYH-XQvAa-37" value="Object" style="html=1;whiteSpace=wrap;" vertex="1" parent="1">
          <mxGeometry x="558.89" y="1020" width="110" height="50" as="geometry" />
        </mxCell>
        <mxCell id="nX3O5HF4ZHFwYH-XQvAa-38" value="Comentario" style="html=1;whiteSpace=wrap;" vertex="1" parent="1">
          <mxGeometry x="548.89" y="1010" width="110" height="50" as="geometry" />
        </mxCell>
        <mxCell id="nX3O5HF4ZHFwYH-XQvAa-39" value="Lista de comentarios del producto" style="shape=note2;boundedLbl=1;whiteSpace=wrap;html=1;size=25;verticalAlign=top;align=center;" vertex="1" parent="1">
          <mxGeometry x="752" y="882.5" width="70" height="85" as="geometry" />
        </mxCell>
        <mxCell id="Ire11kEcOZUN5DbAy0BZ-5" value="&lt;span style=&quot;font-family: Helvetica; font-size: 14px; font-style: normal; font-variant-ligatures: normal; font-variant-caps: normal; font-weight: 400; letter-spacing: normal; orphans: 2; text-align: center; text-indent: 0px; text-transform: none; widows: 2; word-spacing: 0px; -webkit-text-stroke-width: 0px; white-space: nowrap; text-decoration-thickness: initial; text-decoration-style: initial; text-decoration-color: initial; float: none; background-color: light-dark(rgb(255, 255, 255), rgb(11, 11, 11)); display: inline !important;&quot;&gt;&lt;font style=&quot;color: light-dark(rgb(0, 0, 0), rgb(255, 255, 255));&quot;&gt;1.3 asociarComentarioUsuario()&lt;/font&gt;&lt;/span&gt;" style="text;whiteSpace=wrap;html=1;" vertex="1" parent="1">
          <mxGeometry x="45.889999999999986" y="1010" width="150" height="40" as="geometry" />
        </mxCell>
        <mxCell id="nX3O5HF4ZHFwYH-XQvAa-40" value="" style="endArrow=none;dashed=1;html=1;rounded=0;entryX=0;entryY=0.5;entryDx=0;entryDy=0;entryPerimeter=0;exitX=1;exitY=0.5;exitDx=0;exitDy=0;" edge="1" parent="1" source="nX3O5HF4ZHFwYH-XQvAa-28" target="nX3O5HF4ZHFwYH-XQvAa-39">
          <mxGeometry width="50" height="50" relative="1" as="geometry">
            <mxPoint x="951.89" y="820" as="sourcePoint" />
            <mxPoint x="953.89" y="745" as="targetPoint" />
          </mxGeometry>
        </mxCell>
        <mxCell id="nX3O5HF4ZHFwYH-XQvAa-41" value="Lista de comentarios del usuario" style="shape=note2;boundedLbl=1;whiteSpace=wrap;html=1;size=25;verticalAlign=top;align=center;" vertex="1" parent="1">
          <mxGeometry x="752" y="992.5" width="70" height="85" as="geometry" />
        </mxCell>
        <mxCell id="nX3O5HF4ZHFwYH-XQvAa-42" value="" style="endArrow=none;dashed=1;html=1;rounded=0;entryX=0;entryY=0.5;entryDx=0;entryDy=0;entryPerimeter=0;exitX=1;exitY=0.5;exitDx=0;exitDy=0;" edge="1" parent="1" target="nX3O5HF4ZHFwYH-XQvAa-41">
          <mxGeometry width="50" height="50" relative="1" as="geometry">
            <mxPoint x="668.89" y="1042.5" as="sourcePoint" />
            <mxPoint x="923.89" y="862.5" as="targetPoint" />
          </mxGeometry>
        </mxCell>
        <mxCell id="nX3O5HF4ZHFwYH-XQvAa-45" value=":Controller" style="html=1;whiteSpace=wrap;" vertex="1" parent="1">
          <mxGeometry x="260" y="1190" width="110" height="50" as="geometry" />
        </mxCell>
        <mxCell id="nX3O5HF4ZHFwYH-XQvAa-46" value="Object" style="html=1;whiteSpace=wrap;" vertex="1" parent="1">
          <mxGeometry x="540" y="1200" width="110" height="50" as="geometry" />
        </mxCell>
        <mxCell id="nX3O5HF4ZHFwYH-XQvAa-47" value=": Comentario" style="html=1;whiteSpace=wrap;" vertex="1" parent="1">
          <mxGeometry x="530" y="1190" width="110" height="50" as="geometry" />
        </mxCell>
        <mxCell id="nX3O5HF4ZHFwYH-XQvAa-48" value="&lt;font style=&quot;font-size: 14px;&quot;&gt;1* [foreach] c=next()&lt;/font&gt;" style="endArrow=none;html=1;endSize=12;startArrow=none;startSize=14;startFill=0;edgeStyle=orthogonalEdgeStyle;align=center;verticalAlign=bottom;endFill=0;rounded=0;entryX=0;entryY=0.5;entryDx=0;entryDy=0;" edge="1" parent="1" target="nX3O5HF4ZHFwYH-XQvAa-47">
          <mxGeometry y="3" relative="1" as="geometry">
            <mxPoint x="370" y="1214.5" as="sourcePoint" />
            <mxPoint x="530" y="1214.5" as="targetPoint" />
          </mxGeometry>
        </mxCell>
        <mxCell id="nX3O5HF4ZHFwYH-XQvAa-49" value="&lt;span style=&quot;font-size: 14px;&quot;&gt;listarComentario():set(DTComentario)&lt;/span&gt;" style="endArrow=none;html=1;endSize=12;startArrow=none;startSize=14;startFill=0;edgeStyle=orthogonalEdgeStyle;align=center;verticalAlign=bottom;endFill=0;rounded=0;" edge="1" parent="1">
          <mxGeometry x="-0.0789" y="5" relative="1" as="geometry">
            <mxPoint x="3.552713678800501e-15" y="1215" as="sourcePoint" />
            <mxPoint x="260" y="1214.5" as="targetPoint" />
            <mxPoint as="offset" />
          </mxGeometry>
        </mxCell>
        <mxCell id="nX3O5HF4ZHFwYH-XQvAa-50" value="" style="endArrow=classic;html=1;rounded=0;" edge="1" parent="1">
          <mxGeometry width="50" height="50" relative="1" as="geometry">
            <mxPoint x="420" y="1224.37" as="sourcePoint" />
            <mxPoint x="470" y="1224.37" as="targetPoint" />
          </mxGeometry>
        </mxCell>
        <mxCell id="nX3O5HF4ZHFwYH-XQvAa-51" value="c : Comentario" style="html=1;whiteSpace=wrap;" vertex="1" parent="1">
          <mxGeometry x="590" y="1280" width="110" height="50" as="geometry" />
        </mxCell>
        <mxCell id="nX3O5HF4ZHFwYH-XQvAa-52" value="&lt;font style=&quot;font-size: 14px;&quot;&gt;2* n=getDTComentario:DTComentario&lt;/font&gt;" style="endArrow=none;html=1;endSize=12;startArrow=none;startSize=14;startFill=0;edgeStyle=orthogonalEdgeStyle;align=center;verticalAlign=bottom;endFill=0;rounded=0;exitX=0.5;exitY=1;exitDx=0;exitDy=0;entryX=0;entryY=0.5;entryDx=0;entryDy=0;" edge="1" parent="1" target="nX3O5HF4ZHFwYH-XQvAa-51">
          <mxGeometry x="0.2348" y="5" relative="1" as="geometry">
            <mxPoint x="312" y="1240" as="sourcePoint" />
            <mxPoint x="517" y="1344.5" as="targetPoint" />
            <Array as="points">
              <mxPoint x="312" y="1305" />
            </Array>
            <mxPoint as="offset" />
          </mxGeometry>
        </mxCell>
        <mxCell id="nX3O5HF4ZHFwYH-XQvAa-53" value="" style="endArrow=classic;html=1;rounded=0;" edge="1" parent="1">
          <mxGeometry width="50" height="50" relative="1" as="geometry">
            <mxPoint x="391" y="1320" as="sourcePoint" />
            <mxPoint x="441" y="1320" as="targetPoint" />
          </mxGeometry>
        </mxCell>
        <mxCell id="nX3O5HF4ZHFwYH-XQvAa-55" value="&lt;span style=&quot;font-size: 14px;&quot;&gt;agregarComentario(str)&lt;/span&gt;" style="endArrow=none;html=1;endSize=12;startArrow=none;startSize=14;startFill=0;edgeStyle=orthogonalEdgeStyle;align=center;verticalAlign=bottom;endFill=0;rounded=0;" edge="1" parent="1">
          <mxGeometry x="-0.0703" y="6" relative="1" as="geometry">
            <mxPoint y="1645" as="sourcePoint" />
            <mxPoint x="193" y="1644.5" as="targetPoint" />
            <mxPoint x="1" as="offset" />
          </mxGeometry>
        </mxCell>
        <mxCell id="nX3O5HF4ZHFwYH-XQvAa-56" value="&lt;font style=&quot;font-size: 14px;&quot;&gt;2 crearComentario(str)&lt;/font&gt;" style="endArrow=none;html=1;endSize=12;startArrow=none;startSize=14;startFill=0;edgeStyle=orthogonalEdgeStyle;align=center;verticalAlign=bottom;endFill=0;rounded=0;entryX=0;entryY=0.5;entryDx=0;entryDy=0;" edge="1" parent="1" target="nX3O5HF4ZHFwYH-XQvAa-62">
          <mxGeometry x="-0.0042" y="3" relative="1" as="geometry">
            <mxPoint x="303" y="1644.5" as="sourcePoint" />
            <mxPoint x="553" y="1645" as="targetPoint" />
            <mxPoint as="offset" />
          </mxGeometry>
        </mxCell>
        <mxCell id="nX3O5HF4ZHFwYH-XQvAa-57" value="" style="endArrow=classic;html=1;rounded=0;" edge="1" parent="1">
          <mxGeometry width="50" height="50" relative="1" as="geometry">
            <mxPoint x="364" y="1654.38" as="sourcePoint" />
            <mxPoint x="414" y="1654.38" as="targetPoint" />
          </mxGeometry>
        </mxCell>
        <mxCell id="nX3O5HF4ZHFwYH-XQvAa-58" value=": Comentario" style="html=1;whiteSpace=wrap;" vertex="1" parent="1">
          <mxGeometry x="702" y="1685.62" width="110" height="50" as="geometry" />
        </mxCell>
        <mxCell id="nX3O5HF4ZHFwYH-XQvAa-59" value="&lt;span style=&quot;font-size: 14px;&quot;&gt;2.1 r=create(DTComentario)&lt;/span&gt;" style="endArrow=none;html=1;endSize=12;startArrow=none;startSize=14;startFill=0;edgeStyle=orthogonalEdgeStyle;align=center;verticalAlign=bottom;endFill=0;rounded=0;entryX=0.75;entryY=0;entryDx=0;entryDy=0;" edge="1" parent="1" target="nX3O5HF4ZHFwYH-XQvAa-58">
          <mxGeometry x="-0.002" y="3" relative="1" as="geometry">
            <mxPoint x="570" y="1644.5" as="sourcePoint" />
            <mxPoint x="820" y="1645" as="targetPoint" />
            <mxPoint as="offset" />
          </mxGeometry>
        </mxCell>
        <mxCell id="nX3O5HF4ZHFwYH-XQvAa-60" value="" style="endArrow=classic;html=1;rounded=0;" edge="1" parent="1">
          <mxGeometry width="50" height="50" relative="1" as="geometry">
            <mxPoint x="670" y="1654.38" as="sourcePoint" />
            <mxPoint x="720" y="1654.38" as="targetPoint" />
          </mxGeometry>
        </mxCell>
        <mxCell id="nX3O5HF4ZHFwYH-XQvAa-61" value=":Controller" style="html=1;whiteSpace=wrap;" vertex="1" parent="1">
          <mxGeometry x="193" y="1620" width="110" height="50" as="geometry" />
        </mxCell>
        <mxCell id="nX3O5HF4ZHFwYH-XQvAa-62" value="u: Usuario" style="html=1;whiteSpace=wrap;" vertex="1" parent="1">
          <mxGeometry x="461" y="1620" width="110" height="50" as="geometry" />
        </mxCell>
        <mxCell id="nX3O5HF4ZHFwYH-XQvAa-64" value="r : Comentario" style="html=1;whiteSpace=wrap;" vertex="1" parent="1">
          <mxGeometry x="467" y="1790.0000000000002" width="110" height="50" as="geometry" />
        </mxCell>
        <mxCell id="nX3O5HF4ZHFwYH-XQvAa-65" value="" style="endArrow=none;html=1;endSize=12;startArrow=none;startSize=14;startFill=0;edgeStyle=orthogonalEdgeStyle;align=center;verticalAlign=bottom;endFill=0;rounded=0;entryX=0;entryY=0.5;entryDx=0;entryDy=0;exitX=0.432;exitY=1.015;exitDx=0;exitDy=0;exitPerimeter=0;" edge="1" parent="1" source="nX3O5HF4ZHFwYH-XQvAa-58" target="nX3O5HF4ZHFwYH-XQvAa-64">
          <mxGeometry x="0.2795" y="5" relative="1" as="geometry">
            <mxPoint x="814" y="1670" as="sourcePoint" />
            <mxPoint x="1011" y="1760.62" as="targetPoint" />
            <Array as="points">
              <mxPoint x="750" y="1761" />
              <mxPoint x="220" y="1761" />
              <mxPoint x="220" y="1815" />
            </Array>
            <mxPoint as="offset" />
          </mxGeometry>
        </mxCell>
        <mxCell id="nX3O5HF4ZHFwYH-XQvAa-66" value="" style="endArrow=classic;html=1;rounded=0;" edge="1" parent="1">
          <mxGeometry width="50" height="50" relative="1" as="geometry">
            <mxPoint x="347" y="1830" as="sourcePoint" />
            <mxPoint x="397" y="1830" as="targetPoint" />
          </mxGeometry>
        </mxCell>
        <mxCell id="nX3O5HF4ZHFwYH-XQvAa-67" value="&lt;span style=&quot;font-family: Helvetica; font-size: 14px; font-style: normal; font-variant-ligatures: normal; font-variant-caps: normal; font-weight: 400; letter-spacing: normal; orphans: 2; text-align: center; text-indent: 0px; text-transform: none; widows: 2; word-spacing: 0px; -webkit-text-stroke-width: 0px; white-space: nowrap; text-decoration-thickness: initial; text-decoration-style: initial; text-decoration-color: initial; float: none; background-color: light-dark(rgb(255, 255, 255), rgb(11, 11, 11)); display: inline !important;&quot;&gt;&lt;font style=&quot;color: light-dark(rgb(0, 0, 0), rgb(255, 255, 255));&quot;&gt;2.1.1 asociarRespuestaComentario()&lt;/font&gt;&lt;/span&gt;" style="text;whiteSpace=wrap;html=1;" vertex="1" parent="1">
          <mxGeometry x="232" y="1790" width="210" height="40" as="geometry" />
        </mxCell>
        <mxCell id="nX3O5HF4ZHFwYH-XQvAa-68" value="&lt;span style=&quot;font-size: 14px;&quot;&gt;2.2.1 add(c)&lt;/span&gt;" style="endArrow=none;html=1;endSize=12;startArrow=none;startSize=14;startFill=0;edgeStyle=orthogonalEdgeStyle;align=center;verticalAlign=bottom;endFill=0;rounded=0;entryX=0;entryY=0.5;entryDx=0;entryDy=0;" edge="1" parent="1">
          <mxGeometry x="-0.4195" relative="1" as="geometry">
            <mxPoint x="577" y="1814.5" as="sourcePoint" />
            <mxPoint x="766" y="1815" as="targetPoint" />
            <mxPoint as="offset" />
          </mxGeometry>
        </mxCell>
        <mxCell id="nX3O5HF4ZHFwYH-XQvAa-69" value="" style="endArrow=classic;html=1;rounded=0;" edge="1" parent="1">
          <mxGeometry width="50" height="50" relative="1" as="geometry">
            <mxPoint x="612" y="1824.5" as="sourcePoint" />
            <mxPoint x="662" y="1824.5" as="targetPoint" />
          </mxGeometry>
        </mxCell>
        <mxCell id="nX3O5HF4ZHFwYH-XQvAa-70" value="Object" style="html=1;whiteSpace=wrap;" vertex="1" parent="1">
          <mxGeometry x="702" y="1800" width="110" height="50" as="geometry" />
        </mxCell>
        <mxCell id="nX3O5HF4ZHFwYH-XQvAa-71" value="Comentario" style="html=1;whiteSpace=wrap;" vertex="1" parent="1">
          <mxGeometry x="692" y="1790" width="110" height="50" as="geometry" />
        </mxCell>
        <mxCell id="nX3O5HF4ZHFwYH-XQvAa-72" value="c : Comentario" style="html=1;whiteSpace=wrap;" vertex="1" parent="1">
          <mxGeometry x="65" y="1770" width="110" height="50" as="geometry" />
        </mxCell>
        <mxCell id="nX3O5HF4ZHFwYH-XQvAa-73" value="&lt;span style=&quot;font-size: 14px;&quot;&gt;1 find(DTComentario.id)&lt;/span&gt;" style="endArrow=none;html=1;endSize=12;startArrow=none;startSize=14;startFill=0;edgeStyle=orthogonalEdgeStyle;align=center;verticalAlign=bottom;endFill=0;rounded=0;exitX=0.5;exitY=1;exitDx=0;exitDy=0;entryX=0;entryY=0.5;entryDx=0;entryDy=0;" edge="1" parent="1" target="nX3O5HF4ZHFwYH-XQvAa-72">
          <mxGeometry x="0.0338" y="-15" relative="1" as="geometry">
            <mxPoint x="244" y="1670" as="sourcePoint" />
            <mxPoint x="449" y="1774.5" as="targetPoint" />
            <Array as="points">
              <mxPoint x="244" y="1735" />
            </Array>
            <mxPoint as="offset" />
          </mxGeometry>
        </mxCell>
        <mxCell id="nX3O5HF4ZHFwYH-XQvAa-74" value="" style="endArrow=classic;html=1;rounded=0;" edge="1" parent="1">
          <mxGeometry width="50" height="50" relative="1" as="geometry">
            <mxPoint x="190" y="1745.62" as="sourcePoint" />
            <mxPoint x="130" y="1746" as="targetPoint" />
          </mxGeometry>
        </mxCell>
        <mxCell id="nX3O5HF4ZHFwYH-XQvAa-75" value=":Controller" style="html=1;whiteSpace=wrap;" vertex="1" parent="1">
          <mxGeometry x="260.56" y="1370" width="110" height="50" as="geometry" />
        </mxCell>
        <mxCell id="nX3O5HF4ZHFwYH-XQvAa-76" value="&lt;span style=&quot;font-size: 14px;&quot;&gt;seleccionarComentario(DTComentario)&lt;/span&gt;" style="endArrow=none;html=1;endSize=12;startArrow=none;startSize=14;startFill=0;edgeStyle=orthogonalEdgeStyle;align=center;verticalAlign=bottom;endFill=0;rounded=0;" edge="1" parent="1">
          <mxGeometry x="-0.0615" y="6" relative="1" as="geometry">
            <mxPoint y="1396" as="sourcePoint" />
            <mxPoint x="260" y="1380" as="targetPoint" />
            <mxPoint as="offset" />
          </mxGeometry>
        </mxCell>
        <mxCell id="nX3O5HF4ZHFwYH-XQvAa-77" value="Object" style="html=1;whiteSpace=wrap;" vertex="1" parent="1">
          <mxGeometry x="640.56" y="1380" width="110" height="50" as="geometry" />
        </mxCell>
        <mxCell id="nX3O5HF4ZHFwYH-XQvAa-78" value=":Comentario" style="html=1;whiteSpace=wrap;" vertex="1" parent="1">
          <mxGeometry x="630.56" y="1370" width="110" height="50" as="geometry" />
        </mxCell>
        <mxCell id="nX3O5HF4ZHFwYH-XQvAa-79" value="&lt;span style=&quot;font-size: 14px;&quot;&gt;1 c=find(id)&lt;/span&gt;" style="endArrow=none;html=1;endSize=12;startArrow=none;startSize=14;startFill=0;edgeStyle=orthogonalEdgeStyle;align=center;verticalAlign=bottom;endFill=0;rounded=0;exitX=1;exitY=0.5;exitDx=0;exitDy=0;entryX=0;entryY=0.5;entryDx=0;entryDy=0;" edge="1" parent="1" source="nX3O5HF4ZHFwYH-XQvAa-75">
          <mxGeometry x="0.0714" y="5" relative="1" as="geometry">
            <mxPoint x="430.56" y="1330" as="sourcePoint" />
            <mxPoint x="629.56" y="1395" as="targetPoint" />
            <Array as="points" />
            <mxPoint as="offset" />
          </mxGeometry>
        </mxCell>
        <mxCell id="nX3O5HF4ZHFwYH-XQvAa-80" value="c: Comentario" style="html=1;whiteSpace=wrap;" vertex="1" parent="1">
          <mxGeometry x="541.56" y="1480" width="110" height="50" as="geometry" />
        </mxCell>
        <mxCell id="nX3O5HF4ZHFwYH-XQvAa-81" value="&lt;span style=&quot;font-size: 14px;&quot;&gt;2&amp;nbsp;&lt;/span&gt;&lt;span style=&quot;font-size: 14px;&quot;&gt;getDTComentario:DTComentario&lt;/span&gt;" style="endArrow=none;html=1;endSize=12;startArrow=none;startSize=14;startFill=0;edgeStyle=orthogonalEdgeStyle;align=center;verticalAlign=bottom;endFill=0;rounded=0;entryX=0;entryY=0.5;entryDx=0;entryDy=0;" edge="1" parent="1" target="nX3O5HF4ZHFwYH-XQvAa-80">
          <mxGeometry x="0.2771" y="5" relative="1" as="geometry">
            <mxPoint x="312.56" y="1420" as="sourcePoint" />
            <mxPoint x="511.55999999999995" y="1505" as="targetPoint" />
            <Array as="points">
              <mxPoint x="310.56" y="1420" />
              <mxPoint x="312.56" y="1420" />
              <mxPoint x="312.56" y="1505" />
            </Array>
            <mxPoint as="offset" />
          </mxGeometry>
        </mxCell>
        <mxCell id="nX3O5HF4ZHFwYH-XQvAa-82" value="" style="endArrow=classic;html=1;rounded=0;" edge="1" parent="1">
          <mxGeometry width="50" height="50" relative="1" as="geometry">
            <mxPoint x="421.56" y="1520" as="sourcePoint" />
            <mxPoint x="471.56" y="1520" as="targetPoint" />
          </mxGeometry>
        </mxCell>
        <mxCell id="nX3O5HF4ZHFwYH-XQvAa-83" value="" style="endArrow=classic;html=1;rounded=0;" edge="1" parent="1">
          <mxGeometry width="50" height="50" relative="1" as="geometry">
            <mxPoint x="490.56" y="1404.38" as="sourcePoint" />
            <mxPoint x="540.56" y="1404.38" as="targetPoint" />
          </mxGeometry>
        </mxCell>
        <mxCell id="nX3O5HF4ZHFwYH-XQvAa-84" value="Recuerdo comentario obtenido" style="shape=note2;boundedLbl=1;whiteSpace=wrap;html=1;size=25;verticalAlign=top;align=center;" vertex="1" parent="1">
          <mxGeometry x="140" y="1475" width="70" height="85" as="geometry" />
        </mxCell>
        <mxCell id="nX3O5HF4ZHFwYH-XQvAa-85" value="" style="endArrow=none;dashed=1;html=1;rounded=0;entryX=1.057;entryY=0.753;entryDx=0;entryDy=0;entryPerimeter=0;exitX=0.25;exitY=1;exitDx=0;exitDy=0;" edge="1" parent="1" target="nX3O5HF4ZHFwYH-XQvAa-84">
          <mxGeometry width="50" height="50" relative="1" as="geometry">
            <mxPoint x="273" y="1420" as="sourcePoint" />
            <mxPoint x="275" y="1345" as="targetPoint" />
          </mxGeometry>
        </mxCell>
        <mxCell id="OS_Mn5hvRAbZVYv40LZ8-1" value="&lt;font style=&quot;font-size: 24px;&quot;&gt;&lt;b&gt;Dejar Comentario&lt;/b&gt;&lt;/font&gt;" style="text;html=1;align=center;verticalAlign=middle;resizable=0;points=[];autosize=1;strokeColor=none;fillColor=none;" vertex="1" parent="1">
          <mxGeometry x="304" width="220" height="40" as="geometry" />
        </mxCell>
      </root>
    </mxGraphModel>
  </diagram>
</mxfile>
